<svg width="33" height="32" viewBox="0 0 33 32" fill="none" xmlns="http://www.w3.org/2000/svg">
<path d="M24.5 11.2C24.5 8.93684 23.6571 6.76635 22.1569 5.16604C20.6566 3.56573 18.6217 2.66669 16.5 2.66669C14.3783 2.66669 12.3434 3.56573 10.8431 5.16604C9.34286 6.76635 8.5 8.93684 8.5 11.2C8.5 21.1556 4.5 24 4.5 24H28.5C28.5 24 24.5 21.1556 24.5 11.2Z" stroke="black" stroke-width="1.5" stroke-linecap="round" stroke-linejoin="round"/>
<path d="M24.5 11.2C24.5 8.93684 23.6571 6.76635 22.1569 5.16604C20.6566 3.56573 18.6217 2.66669 16.5 2.66669C14.3783 2.66669 12.3434 3.56573 10.8431 5.16604C9.34286 6.76635 8.5 8.93684 8.5 11.2C8.5 21.1556 4.5 24 4.5 24H28.5C28.5 24 24.5 21.1556 24.5 11.2Z" stroke="white" stroke-opacity="0.3" stroke-width="1.5" stroke-linecap="round" stroke-linejoin="round"/>
<path d="M18.8067 28C18.5723 28.4041 18.2358 28.7395 17.831 28.9727C17.4262 29.2059 16.9672 29.3286 16.5 29.3286C16.0329 29.3286 15.5739 29.2059 15.1691 28.9727C14.7642 28.7395 14.4278 28.4041 14.1934 28" stroke="black" stroke-width="1.5" stroke-linecap="round" stroke-linejoin="round"/>
<path d="M18.8067 28C18.5723 28.4041 18.2358 28.7395 17.831 28.9727C17.4262 29.2059 16.9672 29.3286 16.5 29.3286C16.0329 29.3286 15.5739 29.2059 15.1691 28.9727C14.7642 28.7395 14.4278 28.4041 14.1934 28" stroke="white" stroke-opacity="0.3" stroke-width="1.5" stroke-linecap="round" stroke-linejoin="round"/>
</svg>
