<svg width="33" height="32" viewBox="0 0 33 32" fill="none" xmlns="http://www.w3.org/2000/svg">
<path d="M8.49992 9.33332C7.76354 9.33332 7.16659 8.73637 7.16659 7.99999C7.16659 7.26361 7.76354 6.66666 8.49992 6.66666C9.2363 6.66666 9.83325 7.26361 9.83325 7.99999C9.83325 8.73637 9.2363 9.33332 8.49992 9.33332Z" fill="black"/>
<path d="M8.49992 9.33332C7.76354 9.33332 7.16659 8.73637 7.16659 7.99999C7.16659 7.26361 7.76354 6.66666 8.49992 6.66666C9.2363 6.66666 9.83325 7.26361 9.83325 7.99999C9.83325 8.73637 9.2363 9.33332 8.49992 9.33332Z" fill="white" fill-opacity="0.3"/>
<path d="M8.49992 9.33332C7.76354 9.33332 7.16659 8.73637 7.16659 7.99999C7.16659 7.26361 7.76354 6.66666 8.49992 6.66666C9.2363 6.66666 9.83325 7.26361 9.83325 7.99999C9.83325 8.73637 9.2363 9.33332 8.49992 9.33332Z" stroke="black" stroke-width="1.5" stroke-linecap="round" stroke-linejoin="round"/>
<path d="M8.49992 9.33332C7.76354 9.33332 7.16659 8.73637 7.16659 7.99999C7.16659 7.26361 7.76354 6.66666 8.49992 6.66666C9.2363 6.66666 9.83325 7.26361 9.83325 7.99999C9.83325 8.73637 9.2363 9.33332 8.49992 9.33332Z" stroke="white" stroke-opacity="0.3" stroke-width="1.5" stroke-linecap="round" stroke-linejoin="round"/>
<path d="M16.4999 9.33332C15.7635 9.33332 15.1666 8.73637 15.1666 7.99999C15.1666 7.26361 15.7635 6.66666 16.4999 6.66666C17.2363 6.66666 17.8333 7.26361 17.8333 7.99999C17.8333 8.73637 17.2363 9.33332 16.4999 9.33332Z" fill="black"/>
<path d="M16.4999 9.33332C15.7635 9.33332 15.1666 8.73637 15.1666 7.99999C15.1666 7.26361 15.7635 6.66666 16.4999 6.66666C17.2363 6.66666 17.8333 7.26361 17.8333 7.99999C17.8333 8.73637 17.2363 9.33332 16.4999 9.33332Z" fill="white" fill-opacity="0.3"/>
<path d="M16.4999 9.33332C15.7635 9.33332 15.1666 8.73637 15.1666 7.99999C15.1666 7.26361 15.7635 6.66666 16.4999 6.66666C17.2363 6.66666 17.8333 7.26361 17.8333 7.99999C17.8333 8.73637 17.2363 9.33332 16.4999 9.33332Z" stroke="black" stroke-width="1.5" stroke-linecap="round" stroke-linejoin="round"/>
<path d="M16.4999 9.33332C15.7635 9.33332 15.1666 8.73637 15.1666 7.99999C15.1666 7.26361 15.7635 6.66666 16.4999 6.66666C17.2363 6.66666 17.8333 7.26361 17.8333 7.99999C17.8333 8.73637 17.2363 9.33332 16.4999 9.33332Z" stroke="white" stroke-opacity="0.3" stroke-width="1.5" stroke-linecap="round" stroke-linejoin="round"/>
<path d="M24.4999 9.33332C23.7635 9.33332 23.1666 8.73637 23.1666 7.99999C23.1666 7.26361 23.7635 6.66666 24.4999 6.66666C25.2363 6.66666 25.8333 7.26361 25.8333 7.99999C25.8333 8.73637 25.2363 9.33332 24.4999 9.33332Z" fill="black"/>
<path d="M24.4999 9.33332C23.7635 9.33332 23.1666 8.73637 23.1666 7.99999C23.1666 7.26361 23.7635 6.66666 24.4999 6.66666C25.2363 6.66666 25.8333 7.26361 25.8333 7.99999C25.8333 8.73637 25.2363 9.33332 24.4999 9.33332Z" fill="white" fill-opacity="0.3"/>
<path d="M24.4999 9.33332C23.7635 9.33332 23.1666 8.73637 23.1666 7.99999C23.1666 7.26361 23.7635 6.66666 24.4999 6.66666C25.2363 6.66666 25.8333 7.26361 25.8333 7.99999C25.8333 8.73637 25.2363 9.33332 24.4999 9.33332Z" stroke="black" stroke-width="1.5" stroke-linecap="round" stroke-linejoin="round"/>
<path d="M24.4999 9.33332C23.7635 9.33332 23.1666 8.73637 23.1666 7.99999C23.1666 7.26361 23.7635 6.66666 24.4999 6.66666C25.2363 6.66666 25.8333 7.26361 25.8333 7.99999C25.8333 8.73637 25.2363 9.33332 24.4999 9.33332Z" stroke="white" stroke-opacity="0.3" stroke-width="1.5" stroke-linecap="round" stroke-linejoin="round"/>
<path d="M8.49992 17.3333C7.76354 17.3333 7.16659 16.7364 7.16659 16C7.16659 15.2636 7.76354 14.6667 8.49992 14.6667C9.2363 14.6667 9.83325 15.2636 9.83325 16C9.83325 16.7364 9.2363 17.3333 8.49992 17.3333Z" fill="black"/>
<path d="M8.49992 17.3333C7.76354 17.3333 7.16659 16.7364 7.16659 16C7.16659 15.2636 7.76354 14.6667 8.49992 14.6667C9.2363 14.6667 9.83325 15.2636 9.83325 16C9.83325 16.7364 9.2363 17.3333 8.49992 17.3333Z" fill="white" fill-opacity="0.3"/>
<path d="M8.49992 17.3333C7.76354 17.3333 7.16659 16.7364 7.16659 16C7.16659 15.2636 7.76354 14.6667 8.49992 14.6667C9.2363 14.6667 9.83325 15.2636 9.83325 16C9.83325 16.7364 9.2363 17.3333 8.49992 17.3333Z" stroke="black" stroke-width="1.5" stroke-linecap="round" stroke-linejoin="round"/>
<path d="M8.49992 17.3333C7.76354 17.3333 7.16659 16.7364 7.16659 16C7.16659 15.2636 7.76354 14.6667 8.49992 14.6667C9.2363 14.6667 9.83325 15.2636 9.83325 16C9.83325 16.7364 9.2363 17.3333 8.49992 17.3333Z" stroke="white" stroke-opacity="0.3" stroke-width="1.5" stroke-linecap="round" stroke-linejoin="round"/>
<path d="M16.4999 17.3333C15.7635 17.3333 15.1666 16.7364 15.1666 16C15.1666 15.2636 15.7635 14.6667 16.4999 14.6667C17.2363 14.6667 17.8333 15.2636 17.8333 16C17.8333 16.7364 17.2363 17.3333 16.4999 17.3333Z" fill="black"/>
<path d="M16.4999 17.3333C15.7635 17.3333 15.1666 16.7364 15.1666 16C15.1666 15.2636 15.7635 14.6667 16.4999 14.6667C17.2363 14.6667 17.8333 15.2636 17.8333 16C17.8333 16.7364 17.2363 17.3333 16.4999 17.3333Z" fill="white" fill-opacity="0.3"/>
<path d="M16.4999 17.3333C15.7635 17.3333 15.1666 16.7364 15.1666 16C15.1666 15.2636 15.7635 14.6667 16.4999 14.6667C17.2363 14.6667 17.8333 15.2636 17.8333 16C17.8333 16.7364 17.2363 17.3333 16.4999 17.3333Z" stroke="black" stroke-width="1.5" stroke-linecap="round" stroke-linejoin="round"/>
<path d="M16.4999 17.3333C15.7635 17.3333 15.1666 16.7364 15.1666 16C15.1666 15.2636 15.7635 14.6667 16.4999 14.6667C17.2363 14.6667 17.8333 15.2636 17.8333 16C17.8333 16.7364 17.2363 17.3333 16.4999 17.3333Z" stroke="white" stroke-opacity="0.3" stroke-width="1.5" stroke-linecap="round" stroke-linejoin="round"/>
<path d="M24.4999 17.3333C23.7635 17.3333 23.1666 16.7364 23.1666 16C23.1666 15.2636 23.7635 14.6667 24.4999 14.6667C25.2363 14.6667 25.8333 15.2636 25.8333 16C25.8333 16.7364 25.2363 17.3333 24.4999 17.3333Z" fill="black"/>
<path d="M24.4999 17.3333C23.7635 17.3333 23.1666 16.7364 23.1666 16C23.1666 15.2636 23.7635 14.6667 24.4999 14.6667C25.2363 14.6667 25.8333 15.2636 25.8333 16C25.8333 16.7364 25.2363 17.3333 24.4999 17.3333Z" fill="white" fill-opacity="0.3"/>
<path d="M24.4999 17.3333C23.7635 17.3333 23.1666 16.7364 23.1666 16C23.1666 15.2636 23.7635 14.6667 24.4999 14.6667C25.2363 14.6667 25.8333 15.2636 25.8333 16C25.8333 16.7364 25.2363 17.3333 24.4999 17.3333Z" stroke="black" stroke-width="1.5" stroke-linecap="round" stroke-linejoin="round"/>
<path d="M24.4999 17.3333C23.7635 17.3333 23.1666 16.7364 23.1666 16C23.1666 15.2636 23.7635 14.6667 24.4999 14.6667C25.2363 14.6667 25.8333 15.2636 25.8333 16C25.8333 16.7364 25.2363 17.3333 24.4999 17.3333Z" stroke="white" stroke-opacity="0.3" stroke-width="1.5" stroke-linecap="round" stroke-linejoin="round"/>
<path d="M16.4999 25.3333C15.7635 25.3333 15.1666 24.7364 15.1666 24C15.1666 23.2636 15.7635 22.6667 16.4999 22.6667C17.2363 22.6667 17.8333 23.2636 17.8333 24C17.8333 24.7364 17.2363 25.3333 16.4999 25.3333Z" fill="black"/>
<path d="M16.4999 25.3333C15.7635 25.3333 15.1666 24.7364 15.1666 24C15.1666 23.2636 15.7635 22.6667 16.4999 22.6667C17.2363 22.6667 17.8333 23.2636 17.8333 24C17.8333 24.7364 17.2363 25.3333 16.4999 25.3333Z" fill="white" fill-opacity="0.3"/>
<path d="M16.4999 25.3333C15.7635 25.3333 15.1666 24.7364 15.1666 24C15.1666 23.2636 15.7635 22.6667 16.4999 22.6667C17.2363 22.6667 17.8333 23.2636 17.8333 24C17.8333 24.7364 17.2363 25.3333 16.4999 25.3333Z" stroke="black" stroke-width="1.5" stroke-linecap="round" stroke-linejoin="round"/>
<path d="M16.4999 25.3333C15.7635 25.3333 15.1666 24.7364 15.1666 24C15.1666 23.2636 15.7635 22.6667 16.4999 22.6667C17.2363 22.6667 17.8333 23.2636 17.8333 24C17.8333 24.7364 17.2363 25.3333 16.4999 25.3333Z" stroke="white" stroke-opacity="0.3" stroke-width="1.5" stroke-linecap="round" stroke-linejoin="round"/>
<path d="M8.49992 25.3333C7.76354 25.3333 7.16659 24.7364 7.16659 24C7.16659 23.2636 7.76354 22.6667 8.49992 22.6667C9.2363 22.6667 9.83325 23.2636 9.83325 24C9.83325 24.7364 9.2363 25.3333 8.49992 25.3333Z" fill="black"/>
<path d="M8.49992 25.3333C7.76354 25.3333 7.16659 24.7364 7.16659 24C7.16659 23.2636 7.76354 22.6667 8.49992 22.6667C9.2363 22.6667 9.83325 23.2636 9.83325 24C9.83325 24.7364 9.2363 25.3333 8.49992 25.3333Z" fill="white" fill-opacity="0.3"/>
<path d="M8.49992 25.3333C7.76354 25.3333 7.16659 24.7364 7.16659 24C7.16659 23.2636 7.76354 22.6667 8.49992 22.6667C9.2363 22.6667 9.83325 23.2636 9.83325 24C9.83325 24.7364 9.2363 25.3333 8.49992 25.3333Z" stroke="black" stroke-width="1.5" stroke-linecap="round" stroke-linejoin="round"/>
<path d="M8.49992 25.3333C7.76354 25.3333 7.16659 24.7364 7.16659 24C7.16659 23.2636 7.76354 22.6667 8.49992 22.6667C9.2363 22.6667 9.83325 23.2636 9.83325 24C9.83325 24.7364 9.2363 25.3333 8.49992 25.3333Z" stroke="white" stroke-opacity="0.3" stroke-width="1.5" stroke-linecap="round" stroke-linejoin="round"/>
<path d="M24.4999 25.3333C23.7635 25.3333 23.1666 24.7364 23.1666 24C23.1666 23.2636 23.7635 22.6667 24.4999 22.6667C25.2363 22.6667 25.8333 23.2636 25.8333 24C25.8333 24.7364 25.2363 25.3333 24.4999 25.3333Z" fill="black"/>
<path d="M24.4999 25.3333C23.7635 25.3333 23.1666 24.7364 23.1666 24C23.1666 23.2636 23.7635 22.6667 24.4999 22.6667C25.2363 22.6667 25.8333 23.2636 25.8333 24C25.8333 24.7364 25.2363 25.3333 24.4999 25.3333Z" fill="white" fill-opacity="0.3"/>
<path d="M24.4999 25.3333C23.7635 25.3333 23.1666 24.7364 23.1666 24C23.1666 23.2636 23.7635 22.6667 24.4999 22.6667C25.2363 22.6667 25.8333 23.2636 25.8333 24C25.8333 24.7364 25.2363 25.3333 24.4999 25.3333Z" stroke="black" stroke-width="1.5" stroke-linecap="round" stroke-linejoin="round"/>
<path d="M24.4999 25.3333C23.7635 25.3333 23.1666 24.7364 23.1666 24C23.1666 23.2636 23.7635 22.6667 24.4999 22.6667C25.2363 22.6667 25.8333 23.2636 25.8333 24C25.8333 24.7364 25.2363 25.3333 24.4999 25.3333Z" stroke="white" stroke-opacity="0.3" stroke-width="1.5" stroke-linecap="round" stroke-linejoin="round"/>
</svg>
