<svg width="24" height="25" viewBox="0 0 24 25" fill="none" xmlns="http://www.w3.org/2000/svg">
<path d="M21 12.5C19.1114 15.491 15.7183 18.5 12 18.5C8.2817 18.5 4.88856 15.491 3 12.5C5.29855 9.65825 7.99163 6.5 12 6.5C16.0084 6.5 18.7015 9.6582 21 12.5Z" fill="black"/>
<path d="M21 12.5C19.1114 15.491 15.7183 18.5 12 18.5C8.2817 18.5 4.88856 15.491 3 12.5C5.29855 9.65825 7.99163 6.5 12 6.5C16.0084 6.5 18.7015 9.6582 21 12.5Z" fill="white"/>
<path d="M21 12.5C19.1114 15.491 15.7183 18.5 12 18.5C8.2817 18.5 4.88856 15.491 3 12.5C5.29855 9.65825 7.99163 6.5 12 6.5C16.0084 6.5 18.7015 9.6582 21 12.5Z" stroke="black" stroke-width="1.5" stroke-linecap="round" stroke-linejoin="round"/>
<path d="M21 12.5C19.1114 15.491 15.7183 18.5 12 18.5C8.2817 18.5 4.88856 15.491 3 12.5C5.29855 9.65825 7.99163 6.5 12 6.5C16.0084 6.5 18.7015 9.6582 21 12.5Z" stroke="white" stroke-width="1.5" stroke-linecap="round" stroke-linejoin="round"/>
</svg>
