<svg width="16" height="14" viewBox="0 0 16 14" fill="none" xmlns="http://www.w3.org/2000/svg">
<path d="M1.3335 6.33366V2.26699C1.3335 1.93562 1.60212 1.66699 1.9335 1.66699H5.77821C5.92144 1.66699 6.05994 1.71823 6.16868 1.81144L8.16498 3.52255C8.27372 3.61576 8.41222 3.66699 8.55545 3.66699H14.0668C14.3982 3.66699 14.6668 3.93562 14.6668 4.26699V6.33366M1.3335 6.33366V11.7337C1.3335 12.065 1.60213 12.3337 1.9335 12.3337H14.0668C14.3982 12.3337 14.6668 12.065 14.6668 11.7337V6.33366M1.3335 6.33366H14.6668" stroke="black" stroke-width="1.5" stroke-linecap="round" stroke-linejoin="round"/>
<path d="M1.3335 6.33366V2.26699C1.3335 1.93562 1.60212 1.66699 1.9335 1.66699H5.77821C5.92144 1.66699 6.05994 1.71823 6.16868 1.81144L8.16498 3.52255C8.27372 3.61576 8.41222 3.66699 8.55545 3.66699H14.0668C14.3982 3.66699 14.6668 3.93562 14.6668 4.26699V6.33366M1.3335 6.33366V11.7337C1.3335 12.065 1.60213 12.3337 1.9335 12.3337H14.0668C14.3982 12.3337 14.6668 12.065 14.6668 11.7337V6.33366M1.3335 6.33366H14.6668"  stroke-width="1.5" stroke-linecap="round" stroke-linejoin="round"/>
</svg>
