<svg width="16" height="16" viewBox="0 0 16 16" fill="none" xmlns="http://www.w3.org/2000/svg">
<path d="M2.66675 14.0663V1.93301C2.66675 1.60164 2.93538 1.33301 3.26675 1.33301H10.7516C10.9107 1.33301 11.0633 1.39622 11.1758 1.50874L13.1577 3.49061C13.2702 3.60313 13.3334 3.75574 13.3334 3.91487V14.0663C13.3334 14.3977 13.0648 14.6663 12.7334 14.6663H3.26675C2.93538 14.6663 2.66675 14.3977 2.66675 14.0663Z" fill="#D6E4FA" stroke="#75A8D7" stroke-linecap="round" stroke-linejoin="round"/>
<path d="M10.6667 3.39967V1.56871C10.6667 1.43854 10.7723 1.33301 10.9025 1.33301C10.965 1.33301 11.0249 1.35784 11.0691 1.40204L13.2644 3.59731C13.3086 3.64151 13.3334 3.70146 13.3334 3.76397C13.3334 3.89415 13.2279 3.99967 13.0977 3.99967H11.2667C10.9354 3.99967 10.6667 3.73104 10.6667 3.39967Z" fill="#75A8D7" stroke="#75A8D7" stroke-linecap="round" stroke-linejoin="round"/>
</svg>
