<svg width="16" height="17" viewBox="0 0 16 17" fill="none" xmlns="http://www.w3.org/2000/svg">
<path d="M2 12.5V4.5C2 3.39543 2.89543 2.5 4 2.5H10.5049C11.0353 2.5 11.544 2.71071 11.9191 3.08579L13.4142 4.58088C13.7893 4.95595 14 5.46466 14 5.99509V12.5C14 13.6046 13.1046 14.5 12 14.5H4C2.89543 14.5 2 13.6046 2 12.5Z" stroke="black" stroke-width="1.5"/>
<path d="M2 12.5V4.5C2 3.39543 2.89543 2.5 4 2.5H10.5049C11.0353 2.5 11.544 2.71071 11.9191 3.08579L13.4142 4.58088C13.7893 4.95595 14 5.46466 14 5.99509V12.5C14 13.6046 13.1046 14.5 12 14.5H4C2.89543 14.5 2 13.6046 2 12.5Z" stroke="white" stroke-opacity="0.3" stroke-width="1.5"/>
<path d="M5.93331 6.5H10.0666C10.398 6.5 10.6666 6.23137 10.6666 5.9V3.1C10.6666 2.76863 10.398 2.5 10.0666 2.5H5.93331C5.60194 2.5 5.33331 2.76863 5.33331 3.1V5.9C5.33331 6.23137 5.60194 6.5 5.93331 6.5Z" stroke="black" stroke-width="1.5"/>
<path d="M5.93331 6.5H10.0666C10.398 6.5 10.6666 6.23137 10.6666 5.9V3.1C10.6666 2.76863 10.398 2.5 10.0666 2.5H5.93331C5.60194 2.5 5.33331 2.76863 5.33331 3.1V5.9C5.33331 6.23137 5.60194 6.5 5.93331 6.5Z" stroke="white" stroke-opacity="0.3" stroke-width="1.5"/>
<path d="M4 9.76699V14.5003H12V9.76699C12 9.43562 11.7314 9.16699 11.4 9.16699H4.6C4.26863 9.16699 4 9.43562 4 9.76699Z" stroke="black" stroke-width="1.5"/>
<path d="M4 9.76699V14.5003H12V9.76699C12 9.43562 11.7314 9.16699 11.4 9.16699H4.6C4.26863 9.16699 4 9.43562 4 9.76699Z" stroke="white" stroke-opacity="0.3" stroke-width="1.5"/>
</svg>
