<svg width="14" height="14" viewBox="0 0 14 14" fill="none" xmlns="http://www.w3.org/2000/svg">
<path d="M8.94446 8.94434L10.8889 10.8888" stroke="black" stroke-width="1.5" stroke-linecap="round" stroke-linejoin="round"/>
<path d="M8.94446 8.94434L10.8889 10.8888" stroke="white" stroke-opacity="0.7" stroke-width="1.5" stroke-linecap="round" stroke-linejoin="round"/>
<path d="M3.11121 6.44369C3.11121 8.28463 4.60359 9.77702 6.44454 9.77702C7.36661 9.77702 8.20123 9.40263 8.8047 8.79757C9.40607 8.19461 9.77787 7.36257 9.77787 6.44369C9.77787 4.60274 8.28549 3.11035 6.44454 3.11035C4.60359 3.11035 3.11121 4.60274 3.11121 6.44369Z" stroke="black" stroke-width="1.5" stroke-linecap="round" stroke-linejoin="round"/>
<path d="M3.11121 6.44369C3.11121 8.28463 4.60359 9.77702 6.44454 9.77702C7.36661 9.77702 8.20123 9.40263 8.8047 8.79757C9.40607 8.19461 9.77787 7.36257 9.77787 6.44369C9.77787 4.60274 8.28549 3.11035 6.44454 3.11035C4.60359 3.11035 3.11121 4.60274 3.11121 6.44369Z" stroke="white" stroke-opacity="0.7" stroke-width="1.5" stroke-linecap="round" stroke-linejoin="round"/>
</svg>
